static pose
nRows=1
nColumns=203

# File generated from solving marker data for model 3DGaitModelSimple
name static pose
datacolumns 203
datarows 1
otherdata 1
range 1.000000 1.000000
endheader
time	pelvis_tx	pelvis_ty	pelvis_tz	pelvis_list	pelvis_rotation	pelvis_tilt	hip_flexion_r	hip_adduction_r	hip_rotation_r	knee_angle_r	ankle_angle_r	hip_flexion_l	hip_adduction_l	hip_rotation_l	knee_angle_l	ankle_angle_l	lumbar_extension	lumbar_bending	lumbar_rotation	arm_add_r	arm_rot_r	arm_flex_r	elbow_flex_r	pro_sup_r	wrist_dev_r	wrist_flex_r	arm_add_l	arm_rot_l	arm_flex_l	elbow_flex_l	pro_sup_l	wrist_dev_l	wrist_flex_l	subtalar_angle_r	mtp_angle_r	subtalar_angle_l	mtp_angle_l	R.ASIS_tx	R.ASIS_ty	R.ASIS_tz	L.ASIS_tx	L.ASIS_ty	L.ASIS_tz	V.Sacral_tx	V.Sacral_ty	V.Sacral_tz	R.Thigh.Upper_tx	R.Thigh.Upper_ty	R.Thigh.Upper_tz	R.Thigh.Front_tx	R.Thigh.Front_ty	R.Thigh.Front_tz	R.Thigh.Rear_tx	R.Thigh.Rear_ty	R.Thigh.Rear_tz	L.Thigh.Upper_tx	L.Thigh.Upper_ty	L.Thigh.Upper_tz	L.Thigh.Front_tx	L.Thigh.Front_ty	L.Thigh.Front_tz	L.Thigh.Rear_tx	L.Thigh.Rear_ty	L.Thigh.Rear_tz	R.Knee.Lat_tx	R.Knee.Lat_ty	R.Knee.Lat_tz	R.Knee.Med_tx	R.Knee.Med_ty	R.Knee.Med_tz	L.Knee.Lat_tx	L.Knee.Lat_ty	L.Knee.Lat_tz	L.Knee.Med_tx	L.Knee.Med_ty	L.Knee.Med_tz	R.Shank.Upper_tx	R.Shank.Upper_ty	R.Shank.Upper_tz	R.Shank.Front_tx	R.Shank.Front_ty	R.Shank.Front_tz	R.Shank.Rear_tx	R.Shank.Rear_ty	R.Shank.Rear_tz	L.Shank.Upper_tx	L.Shank.Upper_ty	L.Shank.Upper_tz	L.Shank.Front_tx	L.Shank.Front_ty	L.Shank.Front_tz	L.Shank.Rear_tx	L.Shank.Rear_ty	L.Shank.Rear_tz	R.Ankle.Lat_tx	R.Ankle.Lat_ty	R.Ankle.Lat_tz	R.Ankle.Med_tx	R.Ankle.Med_ty	R.Ankle.Med_tz	L.Ankle.Lat_tx	L.Ankle.Lat_ty	L.Ankle.Lat_tz	L.Ankle.Med_tx	L.Ankle.Med_ty	L.Ankle.Med_tz	R.Heel_tx	R.Heel_ty	R.Heel_tz	R.Midfoot.Sup_tx	R.Midfoot.Sup_ty	R.Midfoot.Sup_tz	R.Midfoot.Lat_tx	R.Midfoot.Lat_ty	R.Midfoot.Lat_tz	R.Toe.Tip_tx	R.Toe.Tip_ty	R.Toe.Tip_tz	L.Heel_tx	L.Heel_ty	L.Heel_tz	L.Midfoot.Sup_tx	L.Midfoot.Sup_ty	L.Midfoot.Sup_tz	L.Midfoot.Lat_tx	L.Midfoot.Lat_ty	L.Midfoot.Lat_tz	L.Toe.Tip_tx	L.Toe.Tip_ty	L.Toe.Tip_tz	Sternum_tx	Sternum_ty	Sternum_tz	R.Acromium_tx	R.Acromium_ty	R.Acromium_tz	L.Acromium_tx	L.Acromium_ty	L.Acromium_tz	R.Bicep_tx	R.Bicep_ty	R.Bicep_tz	L.Bicep_tx	L.Bicep_ty	L.Bicep_tz	R.Elbow_tx	R.Elbow_ty	R.Elbow_tz	L.Elbow_tx	L.Elbow_ty	L.Elbow_tz	R.Wrist.Med_tx	R.Wrist.Med_ty	R.Wrist.Med_tz	R.Wrist.Lat_tx	R.Wrist.Lat_ty	R.Wrist.Lat_tz	L.Wrist.Med_tx	L.Wrist.Med_ty	L.Wrist.Med_tz	L.Wrist.Lat_tx	L.Wrist.Lat_ty	L.Wrist.Lat_tz	R.Toe.Lat_tx	R.Toe.Lat_ty	R.Toe.Lat_tz	R.Toe.Med_tx	R.Toe.Med_ty	R.Toe.Med_tz	L.Toe.Lat_tx	L.Toe.Lat_ty	L.Toe.Lat_tz	L.Toe.Med_tx	L.Toe.Med_ty	L.Toe.Med_tz	R.Temple_tx	R.Temple_ty	R.Temple_tz	L.Temple_tx	L.Temple_ty	L.Temple_tz	Top.Head_tx	Top.Head_ty	Top.Head_tz	ground_force_vx	ground_force_vy	ground_force_vz	ground_force_px	ground_force_py	ground_force_pz	ground_force_vx	ground_force_vy	ground_force_vz	ground_force_px	ground_force_py	ground_force_pz	ground_torque_x	ground_torque_y	ground_torque_z	ground_torque_x	ground_torque_y	ground_torque_z
  1.00000000	  0.58002007	  1.03555548	  0.02754401	 -0.80480023	  0.66309147	 -1.06617009	 -3.45391778	 -4.68407033	  3.18140684	  1.01553141	  2.53668059	 -1.04713116	 -4.74941344	 -2.42496485	 -2.51565353	  3.03815640	 -0.00359629	  1.09238723	-11.50454100	-80.81000443	-18.86815674	 29.85027140	  0.00000000	 90.00000000	  0.00000000	  0.00000000	-78.59755212	-58.66277531	 -4.28661288	  0.00000000	 90.00000000	  0.00000000	  0.00000000	  0.00000000	  0.00000000	  0.00000000	  0.00000000	  0.60570486	  1.07297271	  0.15759259	  0.60736866	  1.06055353	 -0.10439954	  0.40842603	  1.07948081	  0.03599509	  0.54303386	  0.75669685	  0.22416458	  0.59327541	  0.68200305	  0.13407219	  0.52232090	  0.63696975	  0.22661202	  0.51584177	  0.76808607	 -0.16824211	  0.60468582	  0.71855550	 -0.11177964	  0.50487841	  0.65895287	 -0.16052973	  0.47557821	  0.55358016	  0.21706114	  0.46915280	  0.52551728	  0.09817796	  0.47680218	  0.52861700	 -0.15024933	  0.49869868	  0.51981091	 -0.03637349	  0.44123350	  0.46916390	  0.23617274	  0.51340628	  0.42409491	  0.18414737	  0.45277166	  0.38409966	  0.25326062	  0.46767893	  0.45037487	 -0.17064353	  0.51695621	  0.39327330	 -0.12782224	  0.44573939	  0.40959992	 -0.18118119	  0.43763678	  0.09810286	  0.25553867	  0.44403994	  0.10356933	  0.16510906	  0.44297388	  0.09364057	 -0.17221204	  0.46496882	  0.10898683	 -0.08178419	  0.36664612	  0.07062468	  0.21027140	  0.50728775	  0.08028307	  0.16490358	  0.50937024	  0.06370622	  0.27289831	  0.65715308	  0.05064992	  0.19532229	  0.37156377	  0.07546687	 -0.11545402	  0.54481299	  0.07703873	 -0.09477508	  0.52376128	  0.06616614	 -0.19177708	  0.65443649	  0.04844598	 -0.12750115	  0.60548336	  1.42572574	  0.02390675	  0.48737267	  1.55023560	  0.19331564	  0.48634453	  1.56133736	 -0.14771493	  0.52232342	  1.50479325	  0.35812792	  0.53097033	  1.50783415	 -0.32558734	  0.51784820	  1.47282105	  0.46157932	  0.49559867	  1.47589039	 -0.42672418	  0.66926962	  1.46767605	  0.68684613	  0.60993728	  1.47665551	  0.71119401	  0.62511116	  1.44343505	 -0.64437030	  0.55280796	  1.44746726	 -0.66349408	  0.59993577	  0.03959130	  0.27669855	  0.59405932	  0.04900080	  0.16807083	  0.58534509	  0.03991663	 -0.20171239	  0.60589207	  0.05160947	 -0.10101701	  0.60694930	  1.65533134	  0.12668549	  0.66614821	  1.64507312	  0.00125323	  0.58933289	  1.81450197	  0.03085671	  0.00000000	  0.00000000	  0.00000000	  0.00000000	  0.00000000	  0.00000000	  0.00000000	  0.00000000	  0.00000000	  0.00000000	  0.00000000	  0.00000000	  0.00000000	  0.00000000	  0.00000000	  0.00000000	  0.00000000	  0.00000000
